<svg xmlns="http://www.w3.org/2000/svg" version="1.1" xlink="http://www.w3.org/1999/xlink" width="100%" height="100%" preserveAspectRatio="xMidYMid meet" viewBox="0 0 300.0000305175781 62.276241302490234" overflow="visible"><defs id="SvgjsDefs33146"></defs><g id="SvgjsG33147" transform="scale(0.6493506493506493)" opacity="1"><g id="SvgjsG33148" class="text" transform="translate(230.68, 38.82) scale(1)" light-content="false" fill="#fc6076"><path d="M-220.24 0.72C-218.53 0.72 -216.78 0.67 -214.98 0.56C-213.18 0.45 -211.42 0.24 -209.71 -0.08C-208 -0.4 -206.38 -0.85 -204.86 -1.42C-203.34 -2 -202.02 -2.77 -200.88 -3.74C-199.75 -4.71 -198.84 -5.89 -198.18 -7.28C-197.51 -8.68 -197.18 -10.34 -197.18 -12.27C-197.18 -13.75 -197.43 -15.02 -197.93 -16.1C-198.42 -17.17 -199.08 -18.09 -199.91 -18.85C-200.73 -19.61 -201.68 -20.24 -202.73 -20.72C-203.79 -21.19 -204.87 -21.58 -205.97 -21.87C-207.07 -22.17 -208.15 -22.38 -209.22 -22.53C-210.28 -22.67 -211.23 -22.77 -212.06 -22.85C-212.51 -22.88 -213.06 -22.93 -213.73 -23.01C-214.39 -23.08 -215.1 -23.2 -215.83 -23.36C-216.57 -23.53 -217.31 -23.77 -218.04 -24.07C-218.78 -24.37 -219.44 -24.76 -220.03 -25.24C-220.61 -25.72 -221.09 -26.31 -221.45 -27C-221.81 -27.69 -222 -28.53 -222 -29.5C-222 -30.62 -221.75 -31.65 -221.25 -32.6C-220.75 -33.55 -220.1 -34.37 -219.29 -35.05C-218.49 -35.74 -217.56 -36.27 -216.52 -36.66C-215.49 -37.05 -214.42 -37.25 -213.32 -37.25C-211.68 -37.25 -210.29 -37.16 -209.15 -36.97C-208 -36.78 -207.04 -36.52 -206.25 -36.17C-205.46 -35.83 -204.81 -35.42 -204.3 -34.95C-203.8 -34.48 -203.37 -33.96 -203.02 -33.4C-202.68 -32.84 -202.38 -32.24 -202.13 -31.61C-201.88 -30.97 -201.62 -30.32 -201.33 -29.66L-200.14 -29.71C-200.35 -30.5 -200.52 -31.23 -200.64 -31.91C-200.77 -32.59 -200.83 -33.32 -200.83 -34.08C-200.83 -34.69 -200.79 -35.31 -200.71 -35.96C-200.63 -36.61 -200.49 -37.35 -200.3 -38.18C-200.86 -38.18 -201.49 -38.21 -202.17 -38.28C-202.86 -38.34 -203.6 -38.41 -204.41 -38.49C-205.22 -38.57 -206.1 -38.64 -207.05 -38.71C-207.99 -38.79 -209.01 -38.82 -210.09 -38.82C-211.34 -38.82 -212.71 -38.75 -214.21 -38.62C-215.71 -38.49 -217.22 -38.25 -218.73 -37.9C-220.25 -37.56 -221.73 -37.09 -223.17 -36.49C-224.61 -35.9 -225.88 -35.14 -226.99 -34.23C-228.1 -33.31 -228.99 -32.22 -229.66 -30.94C-230.34 -29.66 -230.68 -28.16 -230.68 -26.44C-230.68 -24.98 -230.44 -23.73 -229.96 -22.69C-229.48 -21.64 -228.84 -20.75 -228.04 -20.02C-227.24 -19.3 -226.33 -18.7 -225.3 -18.23C-224.27 -17.76 -223.19 -17.38 -222.08 -17.09C-220.96 -16.81 -219.84 -16.6 -218.73 -16.45C-217.62 -16.31 -216.6 -16.19 -215.66 -16.08C-214.4 -15.94 -213.17 -15.75 -211.97 -15.52C-210.77 -15.29 -209.71 -14.95 -208.78 -14.48C-207.84 -14.02 -207.1 -13.41 -206.54 -12.63C-205.98 -11.86 -205.7 -10.86 -205.7 -9.64C-205.7 -8.52 -205.94 -7.43 -206.43 -6.38C-206.92 -5.32 -207.6 -4.38 -208.47 -3.55C-209.34 -2.73 -210.38 -2.07 -211.59 -1.57C-212.79 -1.07 -214.11 -0.83 -215.55 -0.83C-216.76 -0.83 -218.03 -1.02 -219.36 -1.4C-220.69 -1.78 -221.97 -2.31 -223.19 -3C-224.42 -3.68 -225.53 -4.49 -226.52 -5.42C-227.52 -6.35 -228.26 -7.38 -228.76 -8.49L-229.96 -8.44C-229.76 -7.68 -229.59 -6.95 -229.45 -6.27C-229.31 -5.59 -229.24 -4.85 -229.24 -4.05C-229.24 -3.48 -229.28 -2.86 -229.37 -2.2C-229.46 -1.53 -229.6 -0.8 -229.8 0C-229.35 0 -228.91 0.04 -228.48 0.11C-228.04 0.18 -227.49 0.26 -226.82 0.36C-226.14 0.46 -225.29 0.54 -224.26 0.61C-223.23 0.68 -221.89 0.72 -220.24 0.72Z M-158.84 -29.56C-158.84 -31.38 -159.23 -32.86 -160.01 -33.99C-160.79 -35.12 -161.9 -35.99 -163.35 -36.61C-164.8 -37.23 -166.54 -37.65 -168.58 -37.86C-170.63 -38.08 -172.91 -38.18 -175.43 -38.18L-193.24 -38.18L-193.24 -37.2C-192.23 -37.2 -191.41 -37.07 -190.79 -36.81C-190.17 -36.55 -189.69 -36.24 -189.34 -35.87C-188.99 -35.49 -188.76 -35.08 -188.63 -34.64C-188.51 -34.2 -188.45 -33.79 -188.45 -33.42L-188.71 -0.48C-187.15 -0.18 -185.55 0.09 -183.92 0.32C-183.23 0.43 -182.5 0.52 -181.72 0.61C-180.95 0.7 -180.17 0.78 -179.37 0.85C-178.57 0.92 -177.77 0.98 -176.97 1.03C-176.17 1.07 -175.4 1.09 -174.65 1.09C-173.91 1.09 -173.05 1.07 -172.09 1.01C-171.12 0.96 -170.1 0.86 -169.04 0.72C-167.97 0.58 -166.88 0.38 -165.76 0.12C-164.64 -0.14 -163.56 -0.48 -162.51 -0.91C-161.47 -1.33 -160.48 -1.85 -159.56 -2.46C-158.63 -3.08 -157.82 -3.81 -157.12 -4.66C-156.42 -5.51 -155.87 -6.49 -155.47 -7.59C-155.07 -8.69 -154.87 -9.94 -154.87 -11.34C-154.87 -13.14 -155.23 -14.61 -155.94 -15.76C-156.65 -16.92 -157.58 -17.83 -158.73 -18.49C-159.89 -19.16 -161.19 -19.61 -162.63 -19.86C-164.08 -20.11 -165.54 -20.24 -167.01 -20.24L-167.61 -20.24C-167.82 -20.24 -168.02 -20.22 -168.21 -20.18C-166.95 -20.66 -165.75 -21.23 -164.62 -21.9C-163.48 -22.57 -162.49 -23.3 -161.63 -24.11C-160.78 -24.92 -160.1 -25.78 -159.6 -26.71C-159.09 -27.63 -158.84 -28.58 -158.84 -29.56ZM-167.73 -29.61C-167.73 -28.35 -167.88 -27.23 -168.18 -26.24C-168.49 -25.25 -168.89 -24.39 -169.38 -23.64C-169.88 -22.9 -170.44 -22.26 -171.06 -21.73C-171.68 -21.19 -172.32 -20.75 -172.98 -20.4C-174.5 -19.54 -176.24 -19 -178.2 -18.77L-177.77 -17.73C-177.41 -17.79 -177.02 -17.85 -176.57 -17.92C-176.2 -17.95 -175.76 -17.99 -175.27 -18.04C-174.77 -18.08 -174.24 -18.11 -173.67 -18.11C-172.94 -18.11 -172.17 -18.06 -171.37 -17.97C-170.56 -17.88 -169.76 -17.72 -168.97 -17.48C-168.18 -17.24 -167.43 -16.91 -166.72 -16.48C-166.01 -16.06 -165.38 -15.51 -164.83 -14.84C-164.28 -14.18 -163.84 -13.38 -163.52 -12.45C-163.21 -11.52 -163.05 -10.42 -163.05 -9.16C-163.05 -7.65 -163.37 -6.34 -164.02 -5.23C-164.67 -4.12 -165.48 -3.21 -166.45 -2.49C-167.43 -1.77 -168.49 -1.24 -169.62 -0.89C-170.76 -0.55 -171.81 -0.37 -172.79 -0.37C-173.91 -0.37 -174.92 -0.46 -175.83 -0.63C-176.73 -0.79 -177.51 -0.99 -178.17 -1.2C-178.93 -1.43 -179.62 -1.7 -180.22 -2.02L-180.11 -32.94C-180.11 -33.43 -180.05 -33.9 -179.93 -34.35C-179.8 -34.79 -179.57 -35.18 -179.22 -35.52C-178.87 -35.86 -178.4 -36.13 -177.78 -36.33C-177.17 -36.54 -176.39 -36.64 -175.43 -36.64C-174.49 -36.64 -173.55 -36.53 -172.63 -36.32C-171.71 -36.11 -170.88 -35.73 -170.15 -35.2C-169.43 -34.67 -168.84 -33.95 -168.4 -33.04C-167.95 -32.14 -167.73 -30.99 -167.73 -29.61Z M-116.16 -29.66L-114.96 -29.71C-115.17 -30.5 -115.34 -31.23 -115.46 -31.91C-115.59 -32.59 -115.65 -33.34 -115.65 -34.13C-115.65 -34.7 -115.61 -35.31 -115.53 -35.96C-115.45 -36.61 -115.31 -37.35 -115.12 -38.18C-116.08 -38.18 -117.26 -38.2 -118.67 -38.24C-120.08 -38.27 -121.59 -38.29 -123.19 -38.29C-124.84 -38.29 -126.48 -38.24 -128.11 -38.16C-129.75 -38.07 -131.19 -37.87 -132.45 -37.57C-134.85 -37.02 -137.1 -36.18 -139.22 -35.05C-141.33 -33.93 -143.18 -32.51 -144.77 -30.79C-146.36 -29.08 -147.62 -27.07 -148.57 -24.78C-149.52 -22.48 -150.03 -19.89 -150.08 -17.01C-150.04 -14.23 -149.44 -11.7 -148.25 -9.44C-147.07 -7.18 -145.49 -5.25 -143.49 -3.65C-141.49 -2.05 -139.18 -0.82 -136.54 0.05C-133.9 0.92 -131.1 1.36 -128.14 1.36C-126.59 1.36 -125.16 1.23 -123.83 0.99C-122.49 0.74 -121.29 0.4 -120.22 -0.01C-119.14 -0.43 -118.22 -0.9 -117.43 -1.42C-116.65 -1.95 -116.06 -2.49 -115.65 -3.06L-115.22 -6.82C-115.31 -6.71 -115.44 -6.49 -115.61 -6.16C-115.78 -5.84 -116.03 -5.46 -116.37 -5.03C-116.71 -4.61 -117.13 -4.16 -117.65 -3.69C-118.16 -3.22 -118.8 -2.79 -119.55 -2.4C-120.31 -2.01 -121.2 -1.68 -122.23 -1.42C-123.26 -1.17 -124.45 -1.04 -125.8 -1.04C-127.29 -1.04 -128.7 -1.25 -130.03 -1.68C-131.36 -2.1 -132.59 -2.7 -133.7 -3.47C-134.82 -4.25 -135.83 -5.16 -136.74 -6.2C-137.64 -7.25 -138.41 -8.4 -139.03 -9.65C-139.65 -10.9 -140.13 -12.22 -140.47 -13.61C-140.8 -14.99 -140.97 -16.4 -140.97 -17.84L-140.97 -18.98L-129.95 -18.98C-128.14 -18.98 -126.67 -18.9 -125.54 -18.73C-124.42 -18.56 -123.51 -18.27 -122.84 -17.84C-122.17 -17.41 -121.66 -16.83 -121.32 -16.08C-120.99 -15.34 -120.7 -14.4 -120.47 -13.26L-119.59 -13.42C-119.57 -14.2 -119.51 -15.01 -119.41 -15.84C-119.32 -16.55 -119.17 -17.32 -118.98 -18.15C-118.78 -18.97 -118.5 -19.76 -118.13 -20.5L-140.81 -20.5C-140.65 -21.82 -140.39 -23.13 -140.01 -24.44C-139.64 -25.76 -139.17 -27.01 -138.59 -28.21C-138.01 -29.41 -137.34 -30.53 -136.58 -31.57C-135.82 -32.6 -134.97 -33.5 -134.04 -34.25C-133.1 -35.01 -132.1 -35.6 -131.01 -36.04C-129.93 -36.47 -128.78 -36.69 -127.55 -36.69C-126.43 -36.69 -125.31 -36.54 -124.17 -36.22C-123.04 -35.91 -121.96 -35.46 -120.94 -34.85C-119.92 -34.25 -118.99 -33.51 -118.17 -32.64C-117.34 -31.77 -116.67 -30.78 -116.16 -29.66Z M-70.79 -0.32L-71.19 -1.52C-71.7 -1.3 -72.17 -1.17 -72.61 -1.12C-73.04 -1.07 -73.39 -1.04 -73.63 -1.04C-74.15 -1.04 -74.74 -1.22 -75.41 -1.58C-76.07 -1.95 -76.79 -2.45 -77.55 -3.1C-78.31 -3.75 -79.1 -4.51 -79.91 -5.38C-80.71 -6.25 -81.52 -7.19 -82.31 -8.2C-83.11 -9.21 -83.88 -10.27 -84.6 -11.37C-85.33 -12.47 -86 -13.57 -86.6 -14.67C-85.04 -15.03 -83.51 -15.51 -82.01 -16.12C-80.51 -16.73 -79.17 -17.51 -77.99 -18.45C-76.81 -19.39 -75.86 -20.52 -75.14 -21.83C-74.42 -23.15 -74.06 -24.68 -74.06 -26.44C-74.06 -28.52 -74.55 -30.3 -75.54 -31.78C-76.52 -33.26 -77.86 -34.48 -79.53 -35.43C-81.21 -36.38 -83.17 -37.07 -85.4 -37.52C-87.64 -37.96 -90.02 -38.18 -92.54 -38.18L-110.38 -38.18L-110.38 -37.2C-109.42 -37.2 -108.64 -37.08 -108.04 -36.85C-107.43 -36.62 -106.96 -36.33 -106.61 -35.99C-106.27 -35.64 -106.03 -35.26 -105.89 -34.85C-105.76 -34.45 -105.69 -34.06 -105.69 -33.71L-105.69 -4.53C-105.69 -4.05 -105.76 -3.59 -105.89 -3.17C-106.03 -2.74 -106.27 -2.37 -106.62 -2.04C-106.98 -1.71 -107.46 -1.45 -108.06 -1.26C-108.67 -1.08 -109.44 -0.99 -110.38 -0.99L-110.38 0L-92.54 0L-92.54 -0.99C-93.55 -0.99 -94.37 -1.11 -94.99 -1.37C-95.61 -1.63 -96.09 -1.94 -96.41 -2.32C-96.74 -2.69 -96.96 -3.09 -97.08 -3.51C-97.19 -3.94 -97.25 -4.33 -97.25 -4.69L-97.25 -33.04C-97.25 -33.52 -97.19 -33.98 -97.05 -34.41C-96.92 -34.85 -96.68 -35.23 -96.32 -35.56C-95.97 -35.89 -95.48 -36.15 -94.87 -36.34C-94.26 -36.54 -93.48 -36.64 -92.54 -36.64C-91.92 -36.64 -91.25 -36.55 -90.53 -36.38C-89.81 -36.22 -89.1 -35.95 -88.39 -35.6C-87.68 -35.24 -86.99 -34.8 -86.34 -34.25C-85.68 -33.71 -85.1 -33.07 -84.6 -32.31C-84.11 -31.56 -83.71 -30.7 -83.41 -29.73C-83.1 -28.76 -82.95 -27.68 -82.95 -26.49C-82.95 -25.18 -83.13 -24.01 -83.47 -22.98C-83.82 -21.95 -84.28 -21.03 -84.84 -20.24C-85.41 -19.44 -86.06 -18.74 -86.79 -18.16C-87.52 -17.57 -88.26 -17.07 -89.02 -16.64C-90.8 -15.67 -92.81 -14.99 -95.07 -14.62C-94.84 -14.14 -94.44 -13.41 -93.88 -12.43C-93.32 -11.46 -92.64 -10.38 -91.83 -9.19C-91.03 -8 -90.12 -6.78 -89.1 -5.54C-88.09 -4.3 -87.01 -3.16 -85.87 -2.14C-84.72 -1.12 -83.54 -0.28 -82.3 0.37C-81.07 1.03 -79.83 1.36 -78.59 1.36C-77.59 1.36 -76.45 1.24 -75.15 1.01C-73.86 0.78 -72.4 0.34 -70.79 -0.32Z M-15.27 -0.32L-15.67 -1.52C-16.18 -1.3 -16.66 -1.17 -17.09 -1.12C-17.53 -1.07 -17.87 -1.04 -18.12 -1.04C-18.63 -1.04 -19.22 -1.22 -19.89 -1.58C-20.56 -1.95 -21.27 -2.45 -22.03 -3.1C-22.8 -3.75 -23.58 -4.51 -24.39 -5.38C-25.2 -6.25 -26 -7.19 -26.8 -8.2C-27.6 -9.21 -28.36 -10.27 -29.09 -11.37C-29.82 -12.47 -30.48 -13.57 -31.09 -14.67C-29.52 -15.03 -27.99 -15.51 -26.49 -16.12C-24.99 -16.73 -23.65 -17.51 -22.47 -18.45C-21.29 -19.39 -20.34 -20.52 -19.62 -21.83C-18.9 -23.15 -18.55 -24.68 -18.55 -26.44C-18.55 -28.52 -19.04 -30.3 -20.02 -31.78C-21.01 -33.26 -22.34 -34.48 -24.02 -35.43C-25.69 -36.38 -27.65 -37.07 -29.89 -37.52C-32.12 -37.96 -34.5 -38.18 -37.02 -38.18L-54.86 -38.18L-54.86 -37.2C-53.9 -37.2 -53.12 -37.08 -52.52 -36.85C-51.92 -36.62 -51.44 -36.33 -51.1 -35.99C-50.75 -35.64 -50.51 -35.26 -50.38 -34.85C-50.24 -34.45 -50.18 -34.06 -50.18 -33.71L-50.18 -4.53C-50.18 -4.05 -50.24 -3.59 -50.38 -3.17C-50.51 -2.74 -50.75 -2.37 -51.11 -2.04C-51.46 -1.71 -51.94 -1.45 -52.55 -1.26C-53.15 -1.08 -53.92 -0.99 -54.86 -0.99L-54.86 0L-37.02 0L-37.02 -0.99C-38.04 -0.99 -38.85 -1.11 -39.47 -1.37C-40.09 -1.63 -40.57 -1.94 -40.9 -2.32C-41.23 -2.69 -41.45 -3.09 -41.56 -3.51C-41.68 -3.94 -41.74 -4.33 -41.74 -4.69L-41.74 -33.04C-41.74 -33.52 -41.67 -33.98 -41.54 -34.41C-41.4 -34.85 -41.16 -35.23 -40.8 -35.56C-40.45 -35.89 -39.97 -36.15 -39.35 -36.34C-38.74 -36.54 -37.96 -36.64 -37.02 -36.64C-36.4 -36.64 -35.73 -36.55 -35.01 -36.38C-34.29 -36.22 -33.58 -35.95 -32.87 -35.6C-32.16 -35.24 -31.48 -34.8 -30.82 -34.25C-30.16 -33.71 -29.59 -33.07 -29.09 -32.31C-28.59 -31.56 -28.19 -30.7 -27.89 -29.73C-27.59 -28.76 -27.44 -27.68 -27.44 -26.49C-27.44 -25.18 -27.61 -24.01 -27.96 -22.98C-28.3 -21.95 -28.76 -21.03 -29.33 -20.24C-29.9 -19.44 -30.54 -18.74 -31.27 -18.16C-32 -17.57 -32.75 -17.07 -33.51 -16.64C-35.28 -15.67 -37.3 -14.99 -39.55 -14.62C-39.32 -14.14 -38.93 -13.41 -38.37 -12.43C-37.81 -11.46 -37.13 -10.38 -36.32 -9.19C-35.51 -8 -34.6 -6.78 -33.59 -5.54C-32.58 -4.3 -31.5 -3.16 -30.35 -2.14C-29.21 -1.12 -28.02 -0.28 -26.79 0.37C-25.55 1.03 -24.31 1.36 -23.07 1.36C-22.08 1.36 -20.93 1.24 -19.64 1.01C-18.34 0.78 -16.89 0.34 -15.27 -0.32Z M21.23 -29.66L22.43 -29.71C22.22 -30.5 22.05 -31.23 21.93 -31.91C21.8 -32.59 21.74 -33.34 21.74 -34.13C21.74 -34.7 21.78 -35.31 21.86 -35.96C21.94 -36.61 22.08 -37.35 22.27 -38.18C21.31 -38.18 20.13 -38.2 18.72 -38.24C17.31 -38.27 15.8 -38.29 14.21 -38.29C12.55 -38.29 10.91 -38.24 9.28 -38.16C7.65 -38.07 6.2 -37.87 4.94 -37.57C2.54 -37.02 0.29 -36.18 -1.82 -35.05C-3.94 -33.93 -5.79 -32.51 -7.38 -30.79C-8.96 -29.08 -10.23 -27.07 -11.18 -24.78C-12.13 -22.48 -12.63 -19.89 -12.69 -17.01C-12.65 -14.23 -12.04 -11.7 -10.86 -9.44C-9.68 -7.18 -8.09 -5.25 -6.1 -3.65C-4.1 -2.05 -1.78 -0.82 0.85 0.05C3.49 0.92 6.29 1.36 9.25 1.36C10.8 1.36 12.23 1.23 13.57 0.99C14.9 0.74 16.1 0.4 17.17 -0.01C18.25 -0.43 19.18 -0.9 19.96 -1.42C20.74 -1.95 21.33 -2.49 21.74 -3.06L22.17 -6.82C22.08 -6.71 21.95 -6.49 21.78 -6.16C21.61 -5.84 21.36 -5.46 21.02 -5.03C20.68 -4.61 20.26 -4.16 19.74 -3.69C19.23 -3.22 18.59 -2.79 17.84 -2.4C17.09 -2.01 16.19 -1.68 15.16 -1.42C14.13 -1.17 12.94 -1.04 11.6 -1.04C10.1 -1.04 8.69 -1.25 7.36 -1.68C6.03 -2.1 4.81 -2.7 3.69 -3.47C2.57 -4.25 1.56 -5.16 0.65 -6.2C-0.25 -7.25 -1.02 -8.4 -1.64 -9.65C-2.26 -10.9 -2.74 -12.22 -3.08 -13.61C-3.41 -14.99 -3.58 -16.4 -3.58 -17.84L-3.58 -18.98L7.44 -18.98C9.25 -18.98 10.72 -18.9 11.85 -18.73C12.98 -18.56 13.88 -18.27 14.55 -17.84C15.23 -17.41 15.73 -16.83 16.07 -16.08C16.41 -15.34 16.69 -14.4 16.92 -13.26L17.8 -13.42C17.82 -14.2 17.88 -15.01 17.99 -15.84C18.07 -16.55 18.22 -17.32 18.41 -18.15C18.61 -18.97 18.89 -19.76 19.26 -20.5L-3.42 -20.5C-3.26 -21.82 -3 -23.13 -2.62 -24.44C-2.25 -25.76 -1.78 -27.01 -1.2 -28.21C-0.62 -29.41 0.05 -30.53 0.81 -31.57C1.58 -32.6 2.42 -33.5 3.35 -34.25C4.29 -35.01 5.29 -35.6 6.38 -36.04C7.46 -36.47 8.61 -36.69 9.84 -36.69C10.96 -36.69 12.08 -36.54 13.22 -36.22C14.36 -35.91 15.43 -35.46 16.45 -34.85C17.48 -34.25 18.4 -33.51 19.22 -32.64C20.05 -31.77 20.72 -30.78 21.23 -29.66Z M71.24 -1.41L70.84 -2.61C70.32 -2.4 69.85 -2.26 69.41 -2.21C68.98 -2.16 68.64 -2.13 68.39 -2.13C67.7 -2.11 67.08 -2.24 66.53 -2.5C65.98 -2.77 65.47 -3.12 65.02 -3.57C64.57 -4.01 64.16 -4.52 63.8 -5.09C63.43 -5.65 63.09 -6.23 62.77 -6.82C61 -10.08 59.34 -13.4 57.79 -16.76C56.25 -20.12 54.69 -23.48 53.13 -26.84C52.9 -27.34 52.63 -27.93 52.32 -28.61C52.01 -29.29 51.66 -30.02 51.28 -30.78C50.9 -31.54 50.49 -32.31 50.06 -33.07C49.62 -33.83 49.16 -34.55 48.66 -35.21C48.16 -35.88 47.64 -36.46 47.09 -36.94C46.54 -37.43 45.97 -37.78 45.38 -38C44.71 -38.24 44.01 -38.42 43.28 -38.51C42.55 -38.61 41.82 -38.66 41.07 -38.66C39.51 -38.66 37.93 -38.48 36.34 -38.12C34.76 -37.75 33.19 -37.31 31.65 -36.8L32.02 -35.71C32.64 -35.94 33.29 -36.13 33.98 -36.29C34.66 -36.45 35.36 -36.53 36.07 -36.53C37.08 -36.53 37.92 -36.28 38.61 -35.79C39.29 -35.29 39.89 -34.67 40.39 -33.94C40.9 -33.2 41.34 -32.4 41.71 -31.54C42.08 -30.68 42.46 -29.89 42.83 -29.18C43.09 -28.58 43.37 -27.98 43.67 -27.39C43.96 -26.79 44.26 -26.21 44.56 -25.64C43.46 -25.04 42.48 -24.3 41.62 -23.42C40.76 -22.54 39.99 -21.6 39.33 -20.6C38.66 -19.59 38.09 -18.56 37.62 -17.49C37.15 -16.43 36.78 -15.42 36.49 -14.46C35.99 -12.79 35.43 -11.21 34.79 -9.71C34.15 -8.21 33.38 -6.86 32.47 -5.66C31.57 -4.46 30.49 -3.45 29.24 -2.64C27.98 -1.82 26.5 -1.27 24.78 -0.99L25.04 0.16C26.53 0.16 27.9 0.05 29.14 -0.16C30.38 -0.37 31.51 -0.68 32.52 -1.08C33.54 -1.48 34.45 -1.96 35.27 -2.53C36.08 -3.1 36.82 -3.75 37.48 -4.47C37.81 -4.72 38.39 -5.12 39.22 -5.66C40.05 -6.2 41.06 -6.79 42.27 -7.44C43.48 -8.09 44.86 -8.75 46.41 -9.41C47.96 -10.08 49.64 -10.67 51.43 -11.18L52.09 -9.77C52.45 -9.01 52.81 -8.19 53.19 -7.32C53.56 -6.45 53.98 -5.61 54.45 -4.79C54.92 -3.98 55.45 -3.21 56.03 -2.5C56.62 -1.79 57.3 -1.22 58.09 -0.77C58.46 -0.58 58.9 -0.4 59.42 -0.24C59.86 -0.1 60.39 0.02 61.01 0.12C61.64 0.22 62.37 0.27 63.22 0.27C64.29 0.27 65.49 0.15 66.82 -0.08C68.15 -0.31 69.62 -0.75 71.24 -1.41ZM46.05 -22.58L50.58 -13.02C48.54 -12.42 46.62 -11.69 44.83 -10.84C43.03 -9.98 41.47 -9.17 40.14 -8.39C40.53 -9.12 40.88 -9.87 41.19 -10.64C41.5 -11.41 41.79 -12.2 42.06 -13.02C42.32 -13.77 42.59 -14.55 42.85 -15.36C43.12 -16.18 43.41 -17 43.73 -17.83C44.05 -18.65 44.4 -19.46 44.79 -20.26C45.17 -21.06 45.59 -21.83 46.05 -22.58Z M105.19 -29.71C104.97 -30.5 104.81 -31.23 104.68 -31.91C104.56 -32.59 104.49 -33.34 104.49 -34.13C104.49 -34.7 104.53 -35.31 104.61 -35.96C104.69 -36.61 104.83 -37.35 105.03 -38.18C104.07 -38.18 102.88 -38.2 101.47 -38.24C100.06 -38.27 98.56 -38.29 96.96 -38.29C95.31 -38.29 93.67 -38.24 92.03 -38.16C90.4 -38.07 88.95 -37.87 87.69 -37.57C85.3 -37.02 83.04 -36.18 80.93 -35.05C78.82 -33.93 76.97 -32.51 75.38 -30.79C73.79 -29.08 72.52 -27.07 71.57 -24.78C70.62 -22.48 70.12 -19.89 70.07 -17.01C70.08 -15.15 70.37 -13.4 70.92 -11.77C71.47 -10.14 72.23 -8.64 73.2 -7.3C74.16 -5.95 75.32 -4.74 76.66 -3.66C78 -2.59 79.47 -1.69 81.09 -0.96C82.71 -0.23 84.43 0.33 86.27 0.72C88.11 1.11 90 1.3 91.95 1.3C93.43 1.3 94.82 1.19 96.15 0.97C97.47 0.75 98.67 0.44 99.76 0.04C100.84 -0.36 101.78 -0.82 102.59 -1.34C103.4 -1.87 104.03 -2.44 104.49 -3.06L104.92 -6.82C104.83 -6.71 104.7 -6.49 104.53 -6.16C104.37 -5.84 104.11 -5.46 103.78 -5.03C103.44 -4.61 103.01 -4.16 102.5 -3.69C101.98 -3.22 101.35 -2.79 100.59 -2.4C99.84 -2.01 98.95 -1.68 97.92 -1.42C96.89 -1.17 95.7 -1.04 94.35 -1.04C92.86 -1.04 91.45 -1.25 90.12 -1.68C88.79 -2.1 87.56 -2.7 86.44 -3.47C85.32 -4.25 84.31 -5.16 83.41 -6.2C82.5 -7.25 81.74 -8.4 81.12 -9.65C80.5 -10.9 80.02 -12.22 79.68 -13.61C79.34 -14.99 79.17 -16.4 79.17 -17.84C79.17 -19.26 79.32 -20.72 79.6 -22.21C79.88 -23.7 80.3 -25.14 80.84 -26.53C81.38 -27.93 82.04 -29.24 82.83 -30.47C83.62 -31.71 84.52 -32.79 85.51 -33.71C86.5 -34.63 87.6 -35.36 88.79 -35.89C89.97 -36.42 91.24 -36.69 92.59 -36.69C93.71 -36.69 94.84 -36.54 95.97 -36.22C97.11 -35.91 98.19 -35.46 99.21 -34.85C100.23 -34.25 101.15 -33.51 101.98 -32.64C102.8 -31.77 103.47 -30.78 103.99 -29.66Z M136.93 0L136.93 -0.99C135.91 -0.99 135.1 -1.11 134.49 -1.37C133.88 -1.63 133.4 -1.94 133.06 -2.32C132.73 -2.69 132.51 -3.09 132.4 -3.51C132.29 -3.94 132.24 -4.33 132.24 -4.69L132.24 -36.11L135.57 -36.11C135.9 -36.11 136.36 -36.09 136.93 -36.05C137.49 -36.02 138.1 -35.94 138.75 -35.83C139.4 -35.71 140.06 -35.54 140.73 -35.31C141.41 -35.08 142.02 -34.77 142.58 -34.39C143.14 -34.01 143.61 -33.53 143.99 -32.96C144.38 -32.4 144.6 -31.71 144.67 -30.91L145.66 -31.07C145.64 -31.18 145.62 -31.29 145.61 -31.42C145.59 -31.53 145.58 -31.65 145.58 -31.81L145.58 -32.32C145.58 -32.68 145.59 -33.09 145.62 -33.56C145.65 -34.03 145.7 -34.53 145.79 -35.05C145.88 -35.58 146 -36.11 146.14 -36.64C146.28 -37.17 146.48 -37.68 146.72 -38.18L109.61 -38.18C109.57 -37.24 109.48 -36.31 109.34 -35.39C109.2 -34.59 109 -33.74 108.74 -32.84C108.48 -31.95 108.12 -31.13 107.64 -30.38L108.73 -30.22C109.51 -31.45 110.38 -32.44 111.34 -33.2C112.3 -33.97 113.29 -34.57 114.32 -35C115.35 -35.44 116.38 -35.73 117.42 -35.88C118.46 -36.03 119.45 -36.11 120.39 -36.11L123.77 -36.11L123.77 -4.69C123.77 -4.19 123.71 -3.72 123.59 -3.28C123.46 -2.83 123.23 -2.44 122.88 -2.1C122.53 -1.77 122.06 -1.5 121.46 -1.29C120.85 -1.09 120.06 -0.99 119.09 -0.99L119.09 0Z M162.06 -38.18L162.06 -37.2C163.02 -37.2 163.8 -37.08 164.4 -36.85C165.01 -36.62 165.48 -36.33 165.83 -35.99C166.17 -35.64 166.41 -35.26 166.55 -34.85C166.68 -34.45 166.75 -34.06 166.75 -33.71L166.75 -8.89C166.75 -6.76 166.63 -4.79 166.4 -2.97C166.17 -1.15 165.86 0.52 165.48 2.04C165.1 3.55 164.67 4.93 164.19 6.15C163.71 7.38 163.22 8.47 162.73 9.43C161.55 11.68 160.22 13.52 158.73 14.94L159.21 15.82C162.19 14.52 164.86 12.53 167.2 9.85C168.19 8.72 169.17 7.36 170.13 5.79C171.09 4.22 171.94 2.41 172.68 0.36C173.43 -1.69 174.03 -4.01 174.49 -6.59C174.96 -9.17 175.19 -12.06 175.19 -15.26L175.19 -33.6C175.19 -34.08 175.25 -34.53 175.39 -34.96C175.52 -35.39 175.76 -35.77 176.12 -36.11C176.47 -36.44 176.95 -36.71 177.56 -36.9C178.16 -37.1 178.93 -37.2 179.87 -37.2L179.87 -38.18Z M208.26 0.72C209.96 0.72 211.71 0.67 213.52 0.56C215.32 0.45 217.07 0.24 218.79 -0.08C220.5 -0.4 222.12 -0.85 223.63 -1.42C225.15 -2 226.48 -2.77 227.61 -3.74C228.75 -4.71 229.65 -5.89 230.32 -7.28C230.98 -8.68 231.32 -10.34 231.32 -12.27C231.32 -13.75 231.07 -15.02 230.57 -16.1C230.07 -17.17 229.41 -18.09 228.59 -18.85C227.76 -19.61 226.82 -20.24 225.76 -20.72C224.71 -21.19 223.63 -21.58 222.53 -21.87C221.43 -22.17 220.35 -22.38 219.28 -22.53C218.22 -22.67 217.27 -22.77 216.43 -22.85C215.99 -22.88 215.43 -22.93 214.77 -23.01C214.1 -23.08 213.4 -23.2 212.66 -23.36C211.93 -23.53 211.19 -23.77 210.45 -24.07C209.72 -24.37 209.06 -24.76 208.47 -25.24C207.88 -25.72 207.41 -26.31 207.05 -27C206.68 -27.69 206.5 -28.53 206.5 -29.5C206.5 -30.62 206.75 -31.65 207.25 -32.6C207.74 -33.55 208.39 -34.37 209.2 -35.05C210.01 -35.74 210.93 -36.27 211.97 -36.66C213.01 -37.05 214.08 -37.25 215.18 -37.25C216.81 -37.25 218.2 -37.16 219.35 -36.97C220.49 -36.78 221.46 -36.52 222.25 -36.17C223.04 -35.83 223.69 -35.42 224.19 -34.95C224.7 -34.48 225.12 -33.96 225.47 -33.4C225.82 -32.84 226.11 -32.24 226.36 -31.61C226.61 -30.97 226.88 -30.32 227.16 -29.66L228.36 -29.71C228.15 -30.5 227.98 -31.23 227.85 -31.91C227.73 -32.59 227.67 -33.32 227.67 -34.08C227.67 -34.69 227.71 -35.31 227.79 -35.96C227.87 -36.61 228 -37.35 228.2 -38.18C227.63 -38.18 227.01 -38.21 226.32 -38.28C225.64 -38.34 224.89 -38.41 224.09 -38.49C223.28 -38.57 222.4 -38.64 221.45 -38.71C220.5 -38.79 219.48 -38.82 218.4 -38.82C217.16 -38.82 215.79 -38.75 214.29 -38.62C212.79 -38.49 211.28 -38.25 209.76 -37.9C208.24 -37.56 206.77 -37.09 205.33 -36.49C203.89 -35.9 202.62 -35.14 201.51 -34.23C200.4 -33.31 199.51 -32.22 198.83 -30.94C198.16 -29.66 197.82 -28.16 197.82 -26.44C197.82 -24.98 198.06 -23.73 198.54 -22.69C199.02 -21.64 199.66 -20.75 200.46 -20.02C201.25 -19.3 202.17 -18.7 203.2 -18.23C204.23 -17.76 205.3 -17.38 206.42 -17.09C207.54 -16.81 208.65 -16.6 209.76 -16.45C210.87 -16.31 211.9 -16.19 212.84 -16.08C214.1 -15.94 215.33 -15.75 216.52 -15.52C217.72 -15.29 218.79 -14.95 219.72 -14.48C220.65 -14.02 221.4 -13.41 221.96 -12.63C222.52 -11.86 222.79 -10.86 222.79 -9.64C222.79 -8.52 222.55 -7.43 222.06 -6.38C221.57 -5.32 220.9 -4.38 220.03 -3.55C219.16 -2.73 218.12 -2.07 216.91 -1.57C215.7 -1.07 214.38 -0.83 212.94 -0.83C211.74 -0.83 210.47 -1.02 209.14 -1.4C207.8 -1.78 206.53 -2.31 205.3 -3C204.08 -3.68 202.97 -4.49 201.97 -5.42C200.98 -6.35 200.23 -7.38 199.74 -8.49L198.54 -8.44C198.73 -7.68 198.9 -6.95 199.04 -6.27C199.19 -5.59 199.26 -4.85 199.26 -4.05C199.26 -3.48 199.21 -2.86 199.12 -2.2C199.04 -1.53 198.89 -0.8 198.7 0C199.14 0 199.58 0.04 200.02 0.11C200.45 0.18 201.01 0.26 201.68 0.36C202.35 0.46 203.21 0.54 204.24 0.61C205.27 0.68 206.61 0.72 208.26 0.72Z"></path></g><g id="SvgjsG33149" class="text" transform="translate(224.79521884573165, 87.99540528199798) scale(1)" light-content="false" fill="#fc6076"><path d="M-118.65 -24.51L-118.65 -24.02C-118.17 -24.02 -117.78 -23.96 -117.48 -23.84C-117.18 -23.73 -116.94 -23.58 -116.77 -23.41C-116.6 -23.24 -116.48 -23.05 -116.41 -22.85C-116.34 -22.64 -116.31 -22.45 -116.31 -22.27L-116.31 -2.26C-116.31 -2.02 -116.34 -1.8 -116.41 -1.58C-116.48 -1.37 -116.6 -1.18 -116.78 -1.02C-116.95 -0.85 -117.19 -0.73 -117.49 -0.63C-117.8 -0.54 -118.18 -0.49 -118.65 -0.49L-118.65 0L-112.69 0C-111.46 0 -110.35 -0.01 -109.36 -0.02C-108.38 -0.03 -107.54 0.01 -106.86 0.11C-106.17 0.22 -105.65 0.41 -105.28 0.69C-104.91 0.98 -104.73 1.41 -104.73 2C-104.73 2.13 -104.73 2.28 -104.75 2.44C-104.76 2.6 -104.79 2.76 -104.83 2.92L-104.21 2.78C-104.11 2.3 -103.98 1.83 -103.82 1.36C-103.68 0.96 -103.49 0.54 -103.26 0.11C-103.03 -0.33 -102.75 -0.71 -102.41 -1.04L-112.09 -1.04L-112.09 -24.51Z M-98.02 -8.32L-86.29 -8.32C-86.36 -9.19 -86.55 -10.02 -86.87 -10.8C-87.18 -11.58 -87.66 -12.26 -88.29 -12.85C-88.93 -13.44 -89.73 -13.91 -90.72 -14.26C-91.7 -14.6 -92.88 -14.78 -94.28 -14.78C-95.23 -14.78 -96.08 -14.67 -96.85 -14.44C-97.61 -14.22 -98.29 -13.92 -98.88 -13.54C-99.47 -13.16 -99.97 -12.72 -100.39 -12.21C-100.82 -11.71 -101.16 -11.18 -101.44 -10.61C-101.71 -10.04 -101.92 -9.46 -102.04 -8.87C-102.17 -8.28 -102.24 -7.71 -102.24 -7.15C-102.24 -6.56 -102.17 -5.97 -102.02 -5.37C-101.88 -4.76 -101.66 -4.18 -101.37 -3.62C-101.07 -3.06 -100.7 -2.54 -100.25 -2.04C-99.8 -1.55 -99.27 -1.12 -98.66 -0.76C-98.06 -0.39 -97.37 -0.11 -96.59 0.1C-95.82 0.31 -94.96 0.41 -94.01 0.41C-93.17 0.41 -92.39 0.33 -91.69 0.17C-90.98 0.01 -90.34 -0.21 -89.77 -0.49C-89.2 -0.77 -88.69 -1.1 -88.25 -1.48C-87.8 -1.86 -87.42 -2.28 -87.1 -2.73L-90.24 -3.79C-90.39 -3.32 -90.58 -2.89 -90.8 -2.49C-91.02 -2.09 -91.29 -1.74 -91.6 -1.44C-91.91 -1.15 -92.27 -0.91 -92.69 -0.75C-93.1 -0.58 -93.57 -0.49 -94.09 -0.49C-94.91 -0.51 -95.57 -0.71 -96.09 -1.1C-96.6 -1.48 -97 -1.99 -97.29 -2.61C-97.58 -3.23 -97.78 -3.94 -97.88 -4.74C-97.99 -5.54 -98.04 -6.36 -98.04 -7.2L-98.04 -7.75C-98.04 -7.94 -98.04 -8.13 -98.02 -8.32ZM-94.2 -13.85C-93.5 -13.85 -92.93 -13.72 -92.47 -13.48C-92.02 -13.24 -91.65 -12.9 -91.37 -12.48C-91.09 -12.06 -90.88 -11.57 -90.74 -11.01C-90.6 -10.45 -90.51 -9.85 -90.46 -9.21L-97.96 -9.21C-97.89 -9.86 -97.78 -10.47 -97.62 -11.03C-97.47 -11.59 -97.25 -12.08 -96.95 -12.5C-96.66 -12.92 -96.29 -13.25 -95.84 -13.49C-95.39 -13.73 -94.84 -13.85 -94.2 -13.85Z M-76.24 -14.88C-77.14 -14.88 -77.97 -14.77 -78.73 -14.54C-79.48 -14.32 -80.16 -14.01 -80.77 -13.61C-81.38 -13.22 -81.91 -12.75 -82.37 -12.22C-82.83 -11.69 -83.21 -11.12 -83.51 -10.51C-83.82 -9.9 -84.05 -9.27 -84.21 -8.61C-84.36 -7.96 -84.44 -7.3 -84.44 -6.66C-84.44 -5.8 -84.29 -4.94 -83.99 -4.1C-83.7 -3.26 -83.25 -2.5 -82.67 -1.83C-82.08 -1.16 -81.35 -0.62 -80.48 -0.21C-79.6 0.21 -78.59 0.41 -77.44 0.41C-76.73 0.41 -76.11 0.34 -75.57 0.18C-75.03 0.02 -74.56 -0.18 -74.16 -0.43C-73.76 -0.67 -73.42 -0.96 -73.15 -1.28C-72.87 -1.6 -72.65 -1.93 -72.47 -2.26C-72.22 -1.84 -71.9 -1.46 -71.5 -1.12C-71.1 -0.79 -70.66 -0.51 -70.19 -0.27C-69.72 -0.03 -69.24 0.16 -68.74 0.29C-68.25 0.43 -67.78 0.5 -67.34 0.52L-67.18 0.08C-67.55 -0.06 -67.88 -0.29 -68.17 -0.61C-68.42 -0.89 -68.64 -1.26 -68.84 -1.74C-69.04 -2.22 -69.14 -2.85 -69.14 -3.62L-69.14 -3.99C-69.14 -4.2 -69.14 -4.47 -69.13 -4.81C-69.13 -5.14 -69.13 -5.53 -69.12 -5.96C-69.12 -6.39 -69.11 -6.84 -69.11 -7.32C-69.1 -7.79 -69.1 -8.27 -69.1 -8.76C-69.1 -9.25 -69.1 -9.72 -69.09 -10.17C-69.07 -10.94 -68.96 -11.57 -68.76 -12.05C-68.55 -12.53 -68.33 -12.9 -68.09 -13.18C-67.81 -13.5 -67.49 -13.73 -67.13 -13.87L-67.29 -14.31C-67.58 -14.29 -67.89 -14.25 -68.22 -14.19C-68.54 -14.12 -68.87 -14.02 -69.19 -13.9C-69.52 -13.77 -69.85 -13.63 -70.17 -13.45C-70.49 -13.28 -70.78 -13.09 -71.06 -12.87C-71.25 -13.06 -71.5 -13.27 -71.81 -13.5C-72.13 -13.73 -72.5 -13.95 -72.93 -14.15C-73.36 -14.36 -73.85 -14.53 -74.41 -14.67C-74.96 -14.81 -75.57 -14.88 -76.24 -14.88ZM-76.18 -0.99C-76.73 -0.99 -77.25 -1.11 -77.77 -1.36C-78.28 -1.62 -78.74 -2.01 -79.15 -2.54C-79.55 -3.08 -79.87 -3.75 -80.12 -4.57C-80.36 -5.38 -80.48 -6.36 -80.48 -7.5C-80.48 -8.37 -80.38 -9.19 -80.17 -9.96C-79.96 -10.73 -79.67 -11.41 -79.29 -11.99C-78.9 -12.57 -78.44 -13.03 -77.9 -13.37C-77.36 -13.7 -76.76 -13.87 -76.09 -13.87C-75.65 -13.87 -75.26 -13.8 -74.93 -13.66C-74.59 -13.52 -74.31 -13.34 -74.07 -13.11C-73.83 -12.89 -73.63 -12.64 -73.48 -12.35C-73.32 -12.06 -73.19 -11.77 -73.1 -11.49C-73 -11.21 -72.92 -10.93 -72.88 -10.66C-72.83 -10.4 -72.79 -10.17 -72.78 -9.98L-72.88 -4.94C-72.93 -4.59 -73.01 -4.19 -73.12 -3.74C-73.24 -3.29 -73.42 -2.86 -73.66 -2.45C-73.91 -2.04 -74.23 -1.7 -74.64 -1.41C-75.05 -1.13 -75.56 -0.99 -76.18 -0.99Z M-49.16 -0.11L-49.32 -0.71C-49.52 -0.63 -49.71 -0.57 -49.87 -0.55C-50.04 -0.53 -50.16 -0.52 -50.25 -0.52C-50.54 -0.52 -50.9 -0.67 -51.32 -0.96C-51.74 -1.25 -52.18 -1.64 -52.63 -2.12C-53.09 -2.6 -53.53 -3.14 -53.98 -3.75C-54.42 -4.36 -54.81 -4.97 -55.15 -5.59C-54.54 -5.74 -53.94 -5.94 -53.36 -6.17C-52.78 -6.41 -52.26 -6.7 -51.81 -7.05C-51.36 -7.4 -50.99 -7.81 -50.72 -8.28C-50.44 -8.75 -50.3 -9.3 -50.3 -9.92C-50.3 -10.7 -50.53 -11.37 -50.97 -11.92C-51.41 -12.48 -52 -12.93 -52.72 -13.29C-53.44 -13.64 -54.27 -13.9 -55.19 -14.07C-56.11 -14.23 -57.05 -14.31 -58.01 -14.31L-65.52 -14.31L-65.52 -13.79C-65.15 -13.79 -64.84 -13.75 -64.61 -13.67C-64.37 -13.58 -64.19 -13.48 -64.06 -13.35C-63.92 -13.22 -63.83 -13.08 -63.78 -12.92C-63.73 -12.77 -63.71 -12.62 -63.71 -12.49L-63.71 -1.88C-63.71 -1.69 -63.73 -1.52 -63.78 -1.35C-63.83 -1.19 -63.92 -1.04 -64.06 -0.91C-64.19 -0.78 -64.37 -0.68 -64.61 -0.61C-64.84 -0.53 -65.15 -0.49 -65.52 -0.49L-65.52 0L-58.01 0L-58.01 -0.49C-58.4 -0.49 -58.72 -0.54 -58.95 -0.64C-59.19 -0.74 -59.37 -0.85 -59.5 -0.99C-59.62 -1.13 -59.71 -1.28 -59.76 -1.44C-59.8 -1.6 -59.82 -1.74 -59.82 -1.88L-59.82 -12.05C-59.82 -12.22 -59.8 -12.38 -59.74 -12.53C-59.69 -12.69 -59.59 -12.82 -59.46 -12.94C-59.32 -13.06 -59.13 -13.15 -58.9 -13.22C-58.66 -13.29 -58.37 -13.33 -58.01 -13.33C-57.66 -13.33 -57.26 -13.28 -56.83 -13.17C-56.4 -13.07 -56 -12.89 -55.64 -12.63C-55.27 -12.38 -54.96 -12.03 -54.71 -11.59C-54.46 -11.15 -54.34 -10.59 -54.34 -9.92C-54.34 -9.43 -54.4 -9 -54.54 -8.61C-54.67 -8.23 -54.85 -7.89 -55.06 -7.59C-55.28 -7.29 -55.53 -7.03 -55.8 -6.81C-56.08 -6.59 -56.36 -6.4 -56.65 -6.24C-57.34 -5.88 -58.11 -5.63 -58.97 -5.48C-58.86 -5.25 -58.68 -4.93 -58.46 -4.54C-58.23 -4.15 -57.96 -3.73 -57.65 -3.29C-57.33 -2.84 -56.98 -2.4 -56.58 -1.94C-56.19 -1.49 -55.76 -1.08 -55.31 -0.72C-54.86 -0.36 -54.38 -0.06 -53.88 0.17C-53.38 0.4 -52.86 0.52 -52.34 0.52C-51.91 0.52 -51.42 0.47 -50.9 0.38C-50.37 0.29 -49.79 0.12 -49.16 -0.11Z M-40.51 0L-40.51 -0.49C-40.9 -0.49 -41.21 -0.54 -41.44 -0.64C-41.68 -0.74 -41.86 -0.85 -41.99 -0.99C-42.12 -1.13 -42.2 -1.28 -42.25 -1.44C-42.29 -1.6 -42.32 -1.74 -42.32 -1.88L-42.32 -5.13C-41.88 -4.66 -41.38 -4.17 -40.82 -3.63C-40.25 -3.1 -39.66 -2.59 -39.03 -2.11C-38.41 -1.63 -37.76 -1.19 -37.09 -0.81C-36.42 -0.43 -35.76 -0.16 -35.11 0L-29.44 0L-29.44 -0.49C-29.81 -0.49 -30.12 -0.54 -30.35 -0.63C-30.58 -0.71 -30.76 -0.82 -30.89 -0.95C-31.03 -1.08 -31.12 -1.22 -31.17 -1.37C-31.21 -1.52 -31.24 -1.66 -31.24 -1.8L-31.24 -12.51C-31.24 -12.68 -31.21 -12.84 -31.16 -13C-31.11 -13.16 -31.01 -13.29 -30.87 -13.41C-30.74 -13.52 -30.55 -13.61 -30.32 -13.69C-30.09 -13.76 -29.8 -13.79 -29.44 -13.79L-29.44 -14.31L-36.91 -14.31L-36.91 -13.79C-36.52 -13.79 -36.21 -13.75 -35.97 -13.65C-35.74 -13.56 -35.55 -13.44 -35.43 -13.31C-35.3 -13.17 -35.21 -13.02 -35.17 -12.85C-35.13 -12.69 -35.11 -12.54 -35.11 -12.41L-35.11 -1.38C-36.05 -1.88 -36.9 -2.45 -37.66 -3.09C-38.41 -3.73 -39.08 -4.39 -39.67 -5.09C-40.25 -5.78 -40.76 -6.47 -41.2 -7.17C-41.63 -7.87 -42.01 -8.52 -42.32 -9.13L-42.32 -12.51C-42.32 -12.68 -42.29 -12.84 -42.24 -13C-42.18 -13.16 -42.09 -13.29 -41.95 -13.41C-41.81 -13.52 -41.63 -13.61 -41.39 -13.69C-41.16 -13.76 -40.86 -13.79 -40.51 -13.79L-40.51 -14.31L-47.99 -14.31L-47.99 -13.79C-47.61 -13.79 -47.31 -13.75 -47.08 -13.67C-46.84 -13.58 -46.66 -13.48 -46.52 -13.35C-46.39 -13.22 -46.3 -13.08 -46.25 -12.92C-46.2 -12.77 -46.18 -12.62 -46.18 -12.49L-46.18 -1.88C-46.18 -1.69 -46.2 -1.52 -46.25 -1.35C-46.3 -1.19 -46.39 -1.04 -46.52 -0.91C-46.66 -0.78 -46.84 -0.68 -47.08 -0.61C-47.31 -0.53 -47.61 -0.49 -47.99 -0.49L-47.99 0Z M-20.93 -19.09L-20.93 -18.6C-20.46 -18.6 -20.07 -18.54 -19.76 -18.43C-19.46 -18.31 -19.22 -18.17 -19.05 -17.99C-18.88 -17.82 -18.76 -17.63 -18.69 -17.43C-18.63 -17.22 -18.59 -17.03 -18.59 -16.85L-18.59 -4.45C-18.59 -3.38 -18.65 -2.39 -18.76 -1.48C-18.88 -0.57 -19.03 0.26 -19.22 1.02C-19.41 1.78 -19.63 2.46 -19.87 3.08C-20.11 3.69 -20.35 4.23 -20.6 4.71C-21.19 5.84 -21.85 6.76 -22.6 7.47L-22.36 7.91C-20.87 7.26 -19.54 6.27 -18.37 4.93C-17.87 4.36 -17.38 3.68 -16.9 2.9C-16.42 2.11 -16 1.2 -15.62 0.18C-15.25 -0.85 -14.95 -2 -14.72 -3.29C-14.49 -4.59 -14.37 -6.03 -14.37 -7.63L-14.37 -16.8C-14.37 -17.04 -14.34 -17.27 -14.27 -17.48C-14.21 -17.69 -14.08 -17.88 -13.91 -18.05C-13.73 -18.22 -13.49 -18.35 -13.19 -18.45C-12.88 -18.55 -12.5 -18.6 -12.03 -18.6L-12.03 -19.09Z M-4.72 0.36C-3.87 0.36 -2.99 0.33 -2.09 0.28C-1.19 0.23 -0.31 0.12 0.55 -0.04C1.4 -0.2 2.21 -0.42 2.97 -0.71C3.73 -1 4.39 -1.39 4.96 -1.87C5.53 -2.35 5.98 -2.94 6.31 -3.64C6.64 -4.34 6.81 -5.17 6.81 -6.14C6.81 -6.87 6.69 -7.51 6.44 -8.05C6.19 -8.58 5.86 -9.04 5.45 -9.43C5.03 -9.81 4.56 -10.12 4.03 -10.36C3.51 -10.6 2.97 -10.79 2.42 -10.94C1.87 -11.08 1.32 -11.19 0.79 -11.26C0.26 -11.33 -0.22 -11.39 -0.63 -11.42C-0.85 -11.44 -1.13 -11.47 -1.46 -11.5C-1.8 -11.54 -2.15 -11.6 -2.52 -11.68C-2.88 -11.77 -3.25 -11.88 -3.62 -12.04C-3.99 -12.19 -4.32 -12.38 -4.61 -12.62C-4.91 -12.86 -5.14 -13.15 -5.33 -13.5C-5.51 -13.85 -5.6 -14.26 -5.6 -14.75C-5.6 -15.31 -5.47 -15.83 -5.23 -16.3C-4.98 -16.78 -4.65 -17.18 -4.25 -17.53C-3.84 -17.87 -3.38 -18.14 -2.86 -18.33C-2.34 -18.53 -1.81 -18.63 -1.26 -18.63C-0.44 -18.63 0.25 -18.58 0.83 -18.49C1.4 -18.39 1.88 -18.26 2.28 -18.09C2.67 -17.91 3 -17.71 3.25 -17.47C3.5 -17.24 3.71 -16.98 3.89 -16.7C4.06 -16.42 4.21 -16.12 4.33 -15.8C4.46 -15.48 4.59 -15.16 4.73 -14.83L5.33 -14.86C5.23 -15.25 5.14 -15.61 5.08 -15.96C5.02 -16.3 4.99 -16.66 4.99 -17.04C4.99 -17.34 5.01 -17.66 5.05 -17.98C5.09 -18.3 5.15 -18.67 5.25 -19.09C4.97 -19.09 4.66 -19.11 4.31 -19.14C3.97 -19.17 3.6 -19.2 3.2 -19.24C2.79 -19.28 2.35 -19.32 1.88 -19.36C1.4 -19.39 0.89 -19.41 0.35 -19.41C-0.27 -19.41 -0.95 -19.38 -1.7 -19.31C-2.45 -19.24 -3.21 -19.12 -3.97 -18.95C-4.73 -18.78 -5.47 -18.54 -6.18 -18.25C-6.9 -17.95 -7.54 -17.57 -8.09 -17.11C-8.65 -16.66 -9.1 -16.11 -9.43 -15.47C-9.77 -14.83 -9.94 -14.08 -9.94 -13.22C-9.94 -12.49 -9.82 -11.87 -9.58 -11.34C-9.34 -10.82 -9.02 -10.38 -8.62 -10.01C-8.22 -9.65 -7.76 -9.35 -7.25 -9.11C-6.73 -8.88 -6.2 -8.69 -5.64 -8.55C-5.08 -8.41 -4.52 -8.3 -3.97 -8.23C-3.41 -8.16 -2.9 -8.09 -2.43 -8.04C-1.8 -7.97 -1.18 -7.88 -0.59 -7.76C0.01 -7.65 0.55 -7.47 1.01 -7.24C1.48 -7.01 1.85 -6.7 2.13 -6.32C2.41 -5.93 2.55 -5.43 2.55 -4.82C2.55 -4.26 2.43 -3.72 2.18 -3.19C1.94 -2.66 1.6 -2.19 1.16 -1.78C0.73 -1.36 0.21 -1.03 -0.39 -0.79C-1 -0.54 -1.66 -0.41 -2.38 -0.41C-2.98 -0.41 -3.61 -0.51 -4.28 -0.7C-4.95 -0.89 -5.58 -1.16 -6.2 -1.5C-6.81 -1.84 -7.36 -2.24 -7.86 -2.71C-8.36 -3.18 -8.73 -3.69 -8.98 -4.25L-9.58 -4.22C-9.48 -3.84 -9.4 -3.48 -9.33 -3.14C-9.25 -2.79 -9.22 -2.42 -9.22 -2.02C-9.22 -1.74 -9.24 -1.43 -9.29 -1.1C-9.33 -0.77 -9.4 -0.4 -9.5 0C-9.28 0 -9.06 0.02 -8.84 0.05C-8.62 0.09 -8.35 0.13 -8.01 0.18C-7.67 0.23 -7.24 0.27 -6.73 0.31C-6.22 0.34 -5.54 0.36 -4.72 0.36Z M15.89 -20.97L15.89 -20.48C16.24 -20.48 16.53 -20.43 16.76 -20.35C16.99 -20.26 17.17 -20.16 17.3 -20.03C17.43 -19.9 17.52 -19.76 17.57 -19.62C17.62 -19.47 17.65 -19.33 17.66 -19.2C17.7 -18.15 17.68 -17.24 17.61 -16.47C17.54 -15.7 17.44 -15 17.31 -14.39C17.19 -13.78 17.05 -13.22 16.88 -12.7C16.72 -12.19 16.56 -11.66 16.42 -11.14C16.28 -10.61 16.16 -10.05 16.06 -9.45C15.95 -8.86 15.9 -8.17 15.89 -7.39L15.89 -7.15C15.89 -6.56 15.96 -5.97 16.11 -5.37C16.26 -4.76 16.47 -4.18 16.77 -3.62C17.06 -3.06 17.43 -2.54 17.88 -2.04C18.33 -1.55 18.86 -1.12 19.47 -0.76C20.08 -0.39 20.78 -0.11 21.55 0.1C22.32 0.31 23.18 0.41 24.13 0.41C25.12 0.41 26 0.31 26.79 0.09C27.58 -0.12 28.29 -0.41 28.9 -0.77C29.52 -1.14 30.05 -1.56 30.49 -2.06C30.93 -2.55 31.29 -3.08 31.58 -3.63C31.87 -4.19 32.08 -4.77 32.21 -5.37C32.34 -5.97 32.41 -6.56 32.41 -7.15C32.41 -7.76 32.34 -8.38 32.21 -8.99C32.08 -9.61 31.87 -10.2 31.59 -10.77C31.3 -11.34 30.94 -11.87 30.5 -12.35C30.06 -12.84 29.53 -13.27 28.92 -13.63C28.3 -13.99 27.59 -14.27 26.8 -14.47C26 -14.68 25.12 -14.78 24.13 -14.78C23.52 -14.78 22.95 -14.73 22.44 -14.64C21.92 -14.56 21.43 -14.43 20.96 -14.26C21.06 -14.71 21.15 -15.18 21.24 -15.66C21.33 -16.14 21.41 -16.65 21.48 -17.19C21.55 -17.73 21.61 -18.31 21.65 -18.93C21.7 -19.55 21.72 -20.23 21.72 -20.97ZM19.95 -7.2L19.95 -7.44C19.96 -8.29 20.04 -9.09 20.19 -9.87C20.34 -10.64 20.58 -11.32 20.91 -11.91C21.25 -12.5 21.68 -12.97 22.22 -13.32C22.76 -13.67 23.42 -13.85 24.21 -13.85C24.77 -13.85 25.26 -13.75 25.69 -13.57C26.11 -13.38 26.48 -13.12 26.79 -12.8C27.1 -12.48 27.36 -12.09 27.56 -11.66C27.77 -11.22 27.93 -10.75 28.06 -10.24C28.18 -9.74 28.27 -9.22 28.32 -8.68C28.38 -8.14 28.4 -7.61 28.4 -7.08C28.39 -6.57 28.34 -6.05 28.28 -5.52C28.21 -5 28.11 -4.5 27.96 -4.01C27.82 -3.52 27.64 -3.06 27.42 -2.64C27.2 -2.21 26.93 -1.84 26.61 -1.52C26.29 -1.2 25.91 -0.95 25.49 -0.77C25.06 -0.58 24.58 -0.49 24.04 -0.49C23.22 -0.51 22.55 -0.71 22.02 -1.1C21.49 -1.48 21.07 -1.99 20.77 -2.61C20.46 -3.23 20.25 -3.94 20.13 -4.74C20.01 -5.54 19.95 -6.36 19.95 -7.2Z M38.79 -8.32L50.52 -8.32C50.45 -9.19 50.25 -10.02 49.94 -10.8C49.62 -11.58 49.15 -12.26 48.51 -12.85C47.88 -13.44 47.07 -13.91 46.09 -14.26C45.11 -14.6 43.92 -14.78 42.53 -14.78C41.58 -14.78 40.72 -14.67 39.96 -14.44C39.2 -14.22 38.52 -13.92 37.93 -13.54C37.34 -13.16 36.83 -12.72 36.41 -12.21C35.99 -11.71 35.64 -11.18 35.37 -10.61C35.09 -10.04 34.89 -9.46 34.76 -8.87C34.63 -8.28 34.57 -7.71 34.57 -7.15C34.57 -6.56 34.64 -5.97 34.78 -5.37C34.92 -4.76 35.14 -4.18 35.44 -3.62C35.74 -3.06 36.11 -2.54 36.56 -2.04C37.01 -1.55 37.53 -1.12 38.14 -0.76C38.75 -0.39 39.44 -0.11 40.21 0.1C40.98 0.31 41.85 0.41 42.79 0.41C43.64 0.41 44.41 0.33 45.12 0.17C45.82 0.01 46.46 -0.21 47.04 -0.49C47.61 -0.77 48.12 -1.1 48.56 -1.48C49 -1.86 49.38 -2.28 49.7 -2.73L46.56 -3.79C46.41 -3.32 46.23 -2.89 46 -2.49C45.78 -2.09 45.52 -1.74 45.2 -1.44C44.89 -1.15 44.53 -0.91 44.12 -0.75C43.71 -0.58 43.24 -0.49 42.72 -0.49C41.9 -0.51 41.23 -0.71 40.72 -1.1C40.2 -1.48 39.8 -1.99 39.51 -2.61C39.22 -3.23 39.03 -3.94 38.92 -4.74C38.81 -5.54 38.76 -6.36 38.76 -7.2L38.76 -7.75C38.76 -7.94 38.77 -8.13 38.79 -8.32ZM42.61 -13.85C43.3 -13.85 43.88 -13.72 44.33 -13.48C44.79 -13.24 45.16 -12.9 45.44 -12.48C45.72 -12.06 45.93 -11.57 46.06 -11.01C46.2 -10.45 46.3 -9.85 46.35 -9.21L38.84 -9.21C38.91 -9.86 39.03 -10.47 39.18 -11.03C39.34 -11.59 39.56 -12.08 39.85 -12.5C40.15 -12.92 40.52 -13.25 40.96 -13.49C41.41 -13.73 41.96 -13.85 42.61 -13.85Z M59.42 5.41L59.42 4.91C59.06 4.91 58.76 4.87 58.53 4.78C58.3 4.69 58.12 4.58 57.99 4.45C57.86 4.31 57.77 4.17 57.73 4.02C57.68 3.87 57.65 3.73 57.65 3.59L57.65 -5.62C58.68 -5.62 59.52 -5.6 60.16 -5.58C60.79 -5.55 61.3 -5.47 61.68 -5.33C62.06 -5.19 62.33 -4.98 62.51 -4.69C62.69 -4.39 62.83 -3.99 62.94 -3.46L63.3 -3.51C63.31 -3.86 63.33 -4.21 63.36 -4.57C63.4 -4.87 63.45 -5.19 63.53 -5.52C63.61 -5.86 63.72 -6.17 63.87 -6.46L57.65 -6.46L57.65 -13.47L60.65 -13.47C61.01 -13.47 61.39 -13.44 61.77 -13.39C62.16 -13.33 62.52 -13.22 62.86 -13.06C63.21 -12.9 63.5 -12.68 63.76 -12.4C64.01 -12.12 64.18 -11.76 64.28 -11.32L64.63 -11.37C64.63 -11.4 64.63 -11.51 64.64 -11.72C64.64 -11.93 64.66 -12.18 64.7 -12.48C64.73 -12.78 64.78 -13.09 64.85 -13.42C64.91 -13.75 65.01 -14.05 65.15 -14.31L51.98 -14.31L51.98 -13.66C52.35 -13.66 52.66 -13.62 52.89 -13.53C53.12 -13.45 53.3 -13.34 53.43 -13.21C53.57 -13.08 53.66 -12.94 53.71 -12.79C53.75 -12.63 53.78 -12.49 53.78 -12.35L53.78 3.51C53.78 3.7 53.75 3.88 53.7 4.05C53.65 4.22 53.55 4.36 53.42 4.49C53.29 4.62 53.1 4.72 52.87 4.8C52.63 4.87 52.33 4.91 51.95 4.91L51.95 5.41Z M66.68 -7.15C66.68 -6.56 66.75 -5.97 66.89 -5.37C67.03 -4.76 67.25 -4.18 67.55 -3.62C67.85 -3.06 68.22 -2.54 68.67 -2.04C69.12 -1.55 69.65 -1.12 70.25 -0.76C70.86 -0.39 71.55 -0.11 72.32 0.1C73.1 0.31 73.96 0.41 74.91 0.41C75.89 0.41 76.78 0.31 77.58 0.09C78.37 -0.12 79.08 -0.41 79.69 -0.77C80.31 -1.14 80.84 -1.56 81.28 -2.06C81.72 -2.55 82.08 -3.08 82.37 -3.63C82.66 -4.19 82.87 -4.77 83 -5.37C83.13 -5.97 83.2 -6.56 83.2 -7.15C83.2 -7.76 83.13 -8.38 83 -8.99C82.87 -9.61 82.66 -10.2 82.37 -10.77C82.09 -11.34 81.73 -11.87 81.28 -12.35C80.84 -12.84 80.31 -13.27 79.7 -13.63C79.09 -13.99 78.38 -14.27 77.59 -14.47C76.79 -14.68 75.9 -14.78 74.91 -14.78C73.96 -14.78 73.09 -14.67 72.32 -14.44C71.54 -14.22 70.85 -13.92 70.24 -13.54C69.63 -13.16 69.1 -12.72 68.66 -12.21C68.21 -11.71 67.84 -11.18 67.54 -10.61C67.25 -10.04 67.03 -9.46 66.89 -8.87C66.75 -8.28 66.68 -7.71 66.68 -7.15ZM70.74 -7.2C70.75 -8.06 70.82 -8.9 70.96 -9.7C71.1 -10.5 71.33 -11.21 71.66 -11.82C71.99 -12.43 72.42 -12.92 72.96 -13.29C73.5 -13.66 74.18 -13.85 75 -13.85C75.56 -13.85 76.05 -13.75 76.47 -13.57C76.89 -13.38 77.26 -13.12 77.57 -12.8C77.88 -12.48 78.14 -12.09 78.35 -11.66C78.56 -11.22 78.72 -10.75 78.85 -10.24C78.97 -9.74 79.06 -9.22 79.11 -8.68C79.17 -8.14 79.19 -7.61 79.19 -7.08C79.18 -6.57 79.13 -6.05 79.07 -5.52C79 -5 78.9 -4.5 78.75 -4.01C78.61 -3.52 78.43 -3.06 78.21 -2.64C77.99 -2.21 77.72 -1.84 77.4 -1.52C77.08 -1.2 76.7 -0.95 76.28 -0.77C75.85 -0.58 75.37 -0.49 74.83 -0.49C74.01 -0.51 73.34 -0.71 72.81 -1.1C72.28 -1.48 71.86 -1.99 71.56 -2.61C71.25 -3.23 71.04 -3.94 70.92 -4.74C70.8 -5.54 70.74 -6.36 70.74 -7.2Z M101.44 -0.11L101.28 -0.71C101.08 -0.63 100.89 -0.57 100.73 -0.55C100.56 -0.53 100.44 -0.52 100.35 -0.52C100.05 -0.52 99.7 -0.67 99.28 -0.96C98.85 -1.25 98.42 -1.64 97.96 -2.12C97.51 -2.6 97.06 -3.14 96.62 -3.75C96.18 -4.36 95.79 -4.97 95.45 -5.59C96.06 -5.74 96.66 -5.94 97.24 -6.17C97.82 -6.41 98.34 -6.7 98.79 -7.05C99.24 -7.4 99.61 -7.81 99.88 -8.28C100.16 -8.75 100.29 -9.3 100.29 -9.92C100.29 -10.7 100.07 -11.37 99.63 -11.92C99.18 -12.48 98.6 -12.93 97.88 -13.29C97.15 -13.64 96.33 -13.9 95.41 -14.07C94.49 -14.23 93.54 -14.31 92.59 -14.31L85.08 -14.31L85.08 -13.79C85.45 -13.79 85.75 -13.75 85.99 -13.67C86.22 -13.58 86.41 -13.48 86.54 -13.35C86.67 -13.22 86.77 -13.08 86.81 -12.92C86.86 -12.77 86.89 -12.62 86.89 -12.49L86.89 -1.88C86.89 -1.69 86.86 -1.52 86.81 -1.35C86.77 -1.19 86.67 -1.04 86.54 -0.91C86.41 -0.78 86.22 -0.68 85.99 -0.61C85.75 -0.53 85.45 -0.49 85.08 -0.49L85.08 0L92.59 0L92.59 -0.49C92.2 -0.49 91.88 -0.54 91.65 -0.64C91.41 -0.74 91.23 -0.85 91.1 -0.99C90.97 -1.13 90.89 -1.28 90.84 -1.44C90.8 -1.6 90.78 -1.74 90.78 -1.88L90.78 -12.05C90.78 -12.22 90.8 -12.38 90.86 -12.53C90.91 -12.69 91 -12.82 91.14 -12.94C91.28 -13.06 91.47 -13.15 91.7 -13.22C91.94 -13.29 92.23 -13.33 92.59 -13.33C92.94 -13.33 93.33 -13.28 93.76 -13.17C94.19 -13.07 94.59 -12.89 94.96 -12.63C95.33 -12.38 95.64 -12.03 95.89 -11.59C96.14 -11.15 96.26 -10.59 96.26 -9.92C96.26 -9.43 96.19 -9 96.06 -8.61C95.93 -8.23 95.75 -7.89 95.53 -7.59C95.32 -7.29 95.07 -7.03 94.8 -6.81C94.52 -6.59 94.24 -6.4 93.94 -6.24C93.26 -5.88 92.49 -5.63 91.63 -5.48C91.74 -5.25 91.91 -4.93 92.14 -4.54C92.37 -4.15 92.64 -3.73 92.95 -3.29C93.27 -2.84 93.62 -2.4 94.02 -1.94C94.41 -1.49 94.84 -1.08 95.29 -0.72C95.74 -0.36 96.22 -0.06 96.72 0.17C97.22 0.4 97.73 0.52 98.26 0.52C98.69 0.52 99.17 0.47 99.7 0.38C100.23 0.29 100.81 0.12 101.44 -0.11Z M107.04 -8.32L118.77 -8.32C118.7 -9.19 118.51 -10.02 118.19 -10.8C117.88 -11.58 117.4 -12.26 116.77 -12.85C116.13 -13.44 115.33 -13.91 114.35 -14.26C113.37 -14.6 112.18 -14.78 110.78 -14.78C109.84 -14.78 108.98 -14.67 108.22 -14.44C107.45 -14.22 106.78 -13.92 106.19 -13.54C105.6 -13.16 105.09 -12.72 104.67 -12.21C104.25 -11.71 103.9 -11.18 103.62 -10.61C103.35 -10.04 103.15 -9.46 103.02 -8.87C102.89 -8.28 102.82 -7.71 102.82 -7.15C102.82 -6.56 102.89 -5.97 103.04 -5.37C103.18 -4.76 103.4 -4.18 103.7 -3.62C103.99 -3.06 104.37 -2.54 104.81 -2.04C105.26 -1.55 105.79 -1.12 106.4 -0.76C107.01 -0.39 107.7 -0.11 108.47 0.1C109.24 0.31 110.1 0.41 111.05 0.41C111.89 0.41 112.67 0.33 113.37 0.17C114.08 0.01 114.72 -0.21 115.29 -0.49C115.86 -0.77 116.37 -1.1 116.82 -1.48C117.26 -1.86 117.64 -2.28 117.96 -2.73L114.82 -3.79C114.67 -3.32 114.48 -2.89 114.26 -2.49C114.04 -2.09 113.77 -1.74 113.46 -1.44C113.15 -1.15 112.79 -0.91 112.38 -0.75C111.96 -0.58 111.5 -0.49 110.97 -0.49C110.15 -0.51 109.49 -0.71 108.97 -1.1C108.46 -1.48 108.06 -1.99 107.77 -2.61C107.48 -3.23 107.28 -3.94 107.18 -4.74C107.07 -5.54 107.02 -6.36 107.02 -7.2L107.02 -7.75C107.02 -7.94 107.03 -8.13 107.04 -8.32ZM110.86 -13.85C111.56 -13.85 112.13 -13.72 112.59 -13.48C113.05 -13.24 113.41 -12.9 113.69 -12.48C113.97 -12.06 114.18 -11.57 114.32 -11.01C114.46 -10.45 114.55 -9.85 114.61 -9.21L107.1 -9.21C107.17 -9.86 107.28 -10.47 107.44 -11.03C107.59 -11.59 107.82 -12.08 108.11 -12.5C108.4 -12.92 108.77 -13.25 109.22 -13.49C109.67 -13.73 110.22 -13.85 110.86 -13.85Z"></path></g></g></svg>